<mxfile host="65bd71144e">
    <diagram id="HIP3nbAZw_EuaXWnEj3U" name="Page-1">
        <mxGraphModel dx="658" dy="588" grid="1" gridSize="10" guides="1" tooltips="1" connect="1" arrows="1" fold="1" page="1" pageScale="1" pageWidth="850" pageHeight="1100" math="0" shadow="0">
            <root>
                <mxCell id="0"/>
                <mxCell id="1" parent="0"/>
                <mxCell id="5" style="edgeStyle=orthogonalEdgeStyle;html=1;rounded=0;entryX=0.5;entryY=0;entryDx=0;entryDy=0;" parent="1" source="2" target="21" edge="1">
                    <mxGeometry relative="1" as="geometry">
                        <mxPoint x="540" y="180" as="targetPoint"/>
                    </mxGeometry>
                </mxCell>
                <mxCell id="2" value="Start" style="strokeWidth=2;html=1;shape=mxgraph.flowchart.terminator;whiteSpace=wrap;" parent="1" vertex="1">
                    <mxGeometry x="375" y="79" width="100" height="60" as="geometry"/>
                </mxCell>
                <mxCell id="21" value="Press A button" style="shape=parallelogram;perimeter=parallelogramPerimeter;whiteSpace=wrap;html=1;fixedSize=1;shadow=0;strokeWidth=2;" vertex="1" parent="1">
                    <mxGeometry x="365" y="180" width="120" height="60" as="geometry"/>
                </mxCell>
                <mxCell id="25" value="" style="edgeStyle=none;html=1;exitX=0.5;exitY=1;exitDx=0;exitDy=0;entryX=0.5;entryY=0;entryDx=0;entryDy=0;entryPerimeter=0;endArrow=classic;endFill=1;" edge="1" parent="1" source="21">
                    <mxGeometry relative="1" as="geometry">
                        <mxPoint x="425" y="240" as="sourcePoint"/>
                        <mxPoint x="425" y="270" as="targetPoint"/>
                    </mxGeometry>
                </mxCell>
                <mxCell id="50" style="edgeStyle=none;html=1;exitX=0.5;exitY=1;exitDx=0;exitDy=0;entryX=0.5;entryY=0;entryDx=0;entryDy=0;endArrow=classic;endFill=1;" edge="1" parent="1" source="26" target="28">
                    <mxGeometry relative="1" as="geometry"/>
                </mxCell>
                <mxCell id="26" value="Set pin 16 to 1&lt;br&gt;Set pin 15 to 0&lt;br&gt;Set pin 14 to 0" style="rounded=1;whiteSpace=wrap;html=1;shadow=0;strokeWidth=2;" vertex="1" parent="1">
                    <mxGeometry x="365" y="270" width="120" height="60" as="geometry"/>
                </mxCell>
                <mxCell id="51" style="edgeStyle=none;html=1;exitX=0.5;exitY=1;exitDx=0;exitDy=0;entryX=0.5;entryY=0;entryDx=0;entryDy=0;endArrow=classic;endFill=1;" edge="1" parent="1" source="28" target="30">
                    <mxGeometry relative="1" as="geometry"/>
                </mxCell>
                <mxCell id="28" value="Change Microbit text to say Red" style="rounded=1;whiteSpace=wrap;html=1;shadow=0;strokeWidth=2;" vertex="1" parent="1">
                    <mxGeometry x="365" y="350" width="120" height="60" as="geometry"/>
                </mxCell>
                <mxCell id="56" style="edgeStyle=none;html=1;exitX=0.5;exitY=1;exitDx=0;exitDy=0;entryX=0.5;entryY=0;entryDx=0;entryDy=0;endArrow=classic;endFill=1;" edge="1" parent="1" source="29" target="41">
                    <mxGeometry relative="1" as="geometry"/>
                </mxCell>
                <mxCell id="29" value="Set pin 16 to 1&lt;br&gt;Set pin 14 to 1&lt;br&gt;Set pin 15 to 0" style="rounded=1;whiteSpace=wrap;html=1;shadow=0;strokeWidth=2;" vertex="1" parent="1">
                    <mxGeometry x="365" y="750" width="120" height="60" as="geometry"/>
                </mxCell>
                <mxCell id="52" style="edgeStyle=none;html=1;exitX=0.5;exitY=1;exitDx=0;exitDy=0;entryX=0.5;entryY=0;entryDx=0;entryDy=0;endArrow=classic;endFill=1;" edge="1" parent="1" source="30" target="34">
                    <mxGeometry relative="1" as="geometry"/>
                </mxCell>
                <mxCell id="30" value="Set pin 15 to 1&lt;br&gt;Set pin 16 to 0&lt;br&gt;Set pin 14 to 0" style="rounded=1;whiteSpace=wrap;html=1;shadow=0;strokeWidth=2;" vertex="1" parent="1">
                    <mxGeometry x="365" y="430" width="120" height="60" as="geometry"/>
                </mxCell>
                <mxCell id="63" style="edgeStyle=none;html=1;exitX=0.5;exitY=0;exitDx=0;exitDy=0;entryX=0.5;entryY=1;entryDx=0;entryDy=0;endArrow=classic;endFill=1;" edge="1" parent="1" source="31" target="47">
                    <mxGeometry relative="1" as="geometry"/>
                </mxCell>
                <mxCell id="31" value="Set pin # to 1&lt;br&gt;Set pin # to 1&lt;br&gt;Set pin # to 1" style="rounded=1;whiteSpace=wrap;html=1;shadow=0;strokeWidth=2;" vertex="1" parent="1">
                    <mxGeometry x="510" y="510" width="120" height="60" as="geometry"/>
                </mxCell>
                <mxCell id="54" style="edgeStyle=none;html=1;exitX=0.5;exitY=1;exitDx=0;exitDy=0;entryX=0.5;entryY=0;entryDx=0;entryDy=0;endArrow=classic;endFill=1;" edge="1" parent="1" source="32" target="36">
                    <mxGeometry relative="1" as="geometry"/>
                </mxCell>
                <mxCell id="32" value="Set pin 14 to 1&lt;br&gt;Set pin 15 to 0&lt;br&gt;Set pin 16 to 0" style="rounded=1;whiteSpace=wrap;html=1;shadow=0;strokeWidth=2;" vertex="1" parent="1">
                    <mxGeometry x="365" y="590" width="120" height="60" as="geometry"/>
                </mxCell>
                <mxCell id="33" value="Stop" style="strokeWidth=2;html=1;shape=mxgraph.flowchart.terminator;whiteSpace=wrap;shadow=0;" vertex="1" parent="1">
                    <mxGeometry x="520" y="350" width="100" height="60" as="geometry"/>
                </mxCell>
                <mxCell id="53" style="edgeStyle=none;html=1;exitX=0.5;exitY=1;exitDx=0;exitDy=0;entryX=0.5;entryY=0;entryDx=0;entryDy=0;endArrow=classic;endFill=1;" edge="1" parent="1" source="34" target="32">
                    <mxGeometry relative="1" as="geometry"/>
                </mxCell>
                <mxCell id="34" value="Change Microbit text to say Blue" style="rounded=1;whiteSpace=wrap;html=1;shadow=0;strokeWidth=2;" vertex="1" parent="1">
                    <mxGeometry x="365" y="510" width="120" height="60" as="geometry"/>
                </mxCell>
                <mxCell id="35" value="Change Microbit text to e" style="rounded=1;whiteSpace=wrap;html=1;shadow=0;strokeWidth=2;" vertex="1" parent="1">
                    <mxGeometry x="660" y="40" width="120" height="60" as="geometry"/>
                </mxCell>
                <mxCell id="55" style="edgeStyle=none;html=1;exitX=0.5;exitY=1;exitDx=0;exitDy=0;entryX=0.5;entryY=0;entryDx=0;entryDy=0;endArrow=classic;endFill=1;" edge="1" parent="1" source="36" target="29">
                    <mxGeometry relative="1" as="geometry"/>
                </mxCell>
                <mxCell id="36" value="Change Microbit text to say Green" style="rounded=1;whiteSpace=wrap;html=1;shadow=0;strokeWidth=2;" vertex="1" parent="1">
                    <mxGeometry x="365" y="670" width="120" height="60" as="geometry"/>
                </mxCell>
                <mxCell id="37" value="Blue = 14&lt;br&gt;Red = 16&lt;br&gt;Green = 15" style="text;html=1;align=center;verticalAlign=middle;resizable=0;points=[];autosize=1;fontStyle=0" vertex="1" parent="1">
                    <mxGeometry x="750" y="370" width="80" height="60" as="geometry"/>
                </mxCell>
                <mxCell id="59" style="edgeStyle=none;html=1;exitX=0.5;exitY=0;exitDx=0;exitDy=0;entryX=0.5;entryY=1;entryDx=0;entryDy=0;endArrow=classic;endFill=1;" edge="1" parent="1" source="40" target="43">
                    <mxGeometry relative="1" as="geometry"/>
                </mxCell>
                <mxCell id="40" value="Set pin 15 to 1&lt;br&gt;Set pin 16 to 1&lt;br&gt;Set pin 14 to 0" style="rounded=1;whiteSpace=wrap;html=1;shadow=0;strokeWidth=2;" vertex="1" parent="1">
                    <mxGeometry x="510" y="830" width="120" height="60" as="geometry"/>
                </mxCell>
                <mxCell id="57" style="edgeStyle=none;html=1;exitX=1;exitY=0.5;exitDx=0;exitDy=0;entryX=0;entryY=0.5;entryDx=0;entryDy=0;endArrow=classic;endFill=1;" edge="1" parent="1" source="41" target="40">
                    <mxGeometry relative="1" as="geometry"/>
                </mxCell>
                <mxCell id="41" value="Change Microbit text to say Magenta" style="rounded=1;whiteSpace=wrap;html=1;shadow=0;strokeWidth=2;" vertex="1" parent="1">
                    <mxGeometry x="365" y="830" width="120" height="60" as="geometry"/>
                </mxCell>
                <mxCell id="60" style="edgeStyle=none;html=1;exitX=0.5;exitY=0;exitDx=0;exitDy=0;entryX=0.5;entryY=1;entryDx=0;entryDy=0;endArrow=classic;endFill=1;" edge="1" parent="1" source="43" target="44">
                    <mxGeometry relative="1" as="geometry"/>
                </mxCell>
                <mxCell id="43" value="Change Microbit text to say Yellow" style="rounded=1;whiteSpace=wrap;html=1;shadow=0;strokeWidth=2;" vertex="1" parent="1">
                    <mxGeometry x="510" y="750" width="120" height="60" as="geometry"/>
                </mxCell>
                <mxCell id="61" style="edgeStyle=none;html=1;exitX=0.5;exitY=0;exitDx=0;exitDy=0;entryX=0.5;entryY=1;entryDx=0;entryDy=0;endArrow=classic;endFill=1;" edge="1" parent="1" source="44" target="46">
                    <mxGeometry relative="1" as="geometry"/>
                </mxCell>
                <mxCell id="44" value="Set pin 14 to 1&lt;br&gt;Set pin 15 to 1&lt;br&gt;Set pin 16 to 0" style="rounded=1;whiteSpace=wrap;html=1;shadow=0;strokeWidth=2;" vertex="1" parent="1">
                    <mxGeometry x="510" y="670" width="120" height="60" as="geometry"/>
                </mxCell>
                <mxCell id="62" style="edgeStyle=none;html=1;exitX=0.5;exitY=0;exitDx=0;exitDy=0;entryX=0.5;entryY=1;entryDx=0;entryDy=0;endArrow=classic;endFill=1;" edge="1" parent="1" source="46" target="31">
                    <mxGeometry relative="1" as="geometry"/>
                </mxCell>
                <mxCell id="46" value="Change Microbit text to say Cyan" style="rounded=1;whiteSpace=wrap;html=1;shadow=0;strokeWidth=2;" vertex="1" parent="1">
                    <mxGeometry x="510" y="590" width="120" height="60" as="geometry"/>
                </mxCell>
                <mxCell id="64" style="edgeStyle=none;html=1;exitX=0.5;exitY=0;exitDx=0;exitDy=0;entryX=0.5;entryY=1;entryDx=0;entryDy=0;entryPerimeter=0;endArrow=classic;endFill=1;" edge="1" parent="1" source="47" target="33">
                    <mxGeometry relative="1" as="geometry"/>
                </mxCell>
                <mxCell id="47" value="Change Microbit text to say White" style="rounded=1;whiteSpace=wrap;html=1;shadow=0;strokeWidth=2;" vertex="1" parent="1">
                    <mxGeometry x="510" y="430" width="120" height="60" as="geometry"/>
                </mxCell>
            </root>
        </mxGraphModel>
    </diagram>
</mxfile>